<svg width="150" height="200" viewBox="0 0 150 200" xmlns="http://www.w3.org/2000/svg">
  <!-- Scuba Diver Group -->
  <g id="scuba-diver" transform="translate(50,20)">
    <!-- Scuba Tank on the left -->
    <rect x="-15" y="15" width="20" height="60" fill="#d0d5db" />
    
    <!-- Body (scuba suit) -->
    <rect x="0" y="10" width="40" height="80" rx="10" ry="10" fill="#003366" />
    
    <!-- Head -->
    <circle cx="20" cy="0" r="14" fill="#f1c27d" />
    
    <!-- Diving Mask (smaller) -->
    <ellipse cx="20" cy="0" rx="14" ry="7" fill="white" stroke="black" stroke-width="2" />
    <!-- Eyes on the Mask -->
    <circle cx="15" cy="-2" r="1.5" fill="black" />
    <circle cx="25" cy="-2" r="1.5" fill="black" />
    
    <!-- Left Arm -->
    <line x1="0" y1="20" x2="-10" y2="40" stroke="#003366" stroke-width="5" stroke-linecap="round" />
    <!-- Right Arm -->
    <line x1="40" y1="20" x2="50" y2="40" stroke="#003366" stroke-width="5" stroke-linecap="round" />
    
    <!-- Left Leg (thicker) -->
    <line x1="10" y1="90" x2="10" y2="120" stroke="#003366" stroke-width="6" stroke-linecap="round" />
    <!-- Right Leg (thicker) -->
    <line x1="30" y1="90" x2="30" y2="120" stroke="#003366" stroke-width="6" stroke-linecap="round" />
    
    <!-- Left Fin (flipper) -->
    <polygon points="10,120 -5,135 10,135" fill="#003366" />
    <!-- Right Fin (flipper) -->
    <polygon points="30,120 30,135 45,135" fill="#003366" />
  </g>
  
  <!-- Animated Bubbles -->
  <g id="bubbles">
    <circle cx="85" cy="18" r="3" fill="lightblue" opacity="0.8">
      <animate attributeName="cy" values="18;1" dur="5s" repeatCount="indefinite" />
      <animate attributeName="opacity" values="0.8;0" dur="5s" repeatCount="indefinite" />
    </circle>
    <circle cx="95" cy="28" r="2.5" fill="lightblue" opacity="0.8">
      <animate attributeName="cy" values="28;1" dur="5s" begin="1s" repeatCount="indefinite" />
      <animate attributeName="opacity" values="0.8;0" dur="5s" begin="1s" repeatCount="indefinite" />
    </circle>
    <circle cx="105" cy="17" r="3" fill="lightblue" opacity="0.8">
      <animate attributeName="cy" values="17;-40" dur="5s" begin="2s" repeatCount="indefinite" />
      <animate attributeName="opacity" values="0.8;0" dur="5s" begin="2s" repeatCount="indefinite" />
    </circle>
    <circle cx="100" cy="18" r="2" fill="lightblue" opacity="0.8">
      <animate attributeName="cy" values="18;-55" dur="5s" begin="3s" repeatCount="indefinite" />
      <animate attributeName="opacity" values="0.8;0" dur="5s" begin="3s" repeatCount="indefinite" />
    </circle>
  </g>
</svg>
